<svg width="123" height="123" fill="none" xmlns="http://www.w3.org/2000/svg"><rect x=".313" y=".047" width="10" height="10" rx="5" fill="#81818B" fill-opacity=".2"/><rect x="16.313" y=".047" width="10" height="10" rx="5" fill="#81818B" fill-opacity=".2"/><rect x="32.313" y=".047" width="10" height="10" rx="5" fill="#81818B" fill-opacity=".2"/><rect x="48.313" y=".047" width="10" height="10" rx="5" fill="#81818B" fill-opacity=".2"/><rect x="64.313" y=".047" width="10" height="10" rx="5" fill="#81818B" fill-opacity=".2"/><rect x="80.313" y=".047" width="10" height="10" rx="5" fill="#81818B" fill-opacity=".2"/><rect x="96.313" y=".047" width="10" height="10" rx="5" fill="#81818B" fill-opacity=".2"/><rect x="112.312" y=".047" width="10" height="10" rx="5" fill="#81818B" fill-opacity=".2"/><rect x=".313" y="16.047" width="10" height="10" rx="5" fill="#81818B" fill-opacity=".2"/><rect x="16.313" y="16.047" width="10" height="10" rx="5" fill="#81818B" fill-opacity=".2"/><rect x="32.313" y="16.047" width="10" height="10" rx="5" fill="#81818B" fill-opacity=".2"/><rect x="48.313" y="16.047" width="10" height="10" rx="5" fill="#81818B" fill-opacity=".2"/><rect x="64.313" y="16.047" width="10" height="10" rx="5" fill="#81818B" fill-opacity=".2"/><rect x="80.313" y="16.047" width="10" height="10" rx="5" fill="#81818B" fill-opacity=".2"/><rect x="96.313" y="16.047" width="10" height="10" rx="5" fill="#81818B" fill-opacity=".2"/><rect x="112.312" y="16.047" width="10" height="10" rx="5" fill="#81818B" fill-opacity=".2"/><rect x=".313" y="32.047" width="10" height="10" rx="5" fill="#81818B" fill-opacity=".2"/><rect x="16.313" y="32.047" width="10" height="10" rx="5" fill="#81818B" fill-opacity=".2"/><rect x="32.313" y="32.047" width="10" height="10" rx="5" fill="#81818B" fill-opacity=".2"/><rect x="48.313" y="32.047" width="10" height="10" rx="5" fill="#81818B" fill-opacity=".2"/><rect x="64.313" y="32.047" width="10" height="10" rx="5" fill="#81818B" fill-opacity=".2"/><rect x="80.313" y="32.047" width="10" height="10" rx="5" fill="#81818B" fill-opacity=".2"/><rect x="96.313" y="32.047" width="10" height="10" rx="5" fill="#81818B" fill-opacity=".2"/><rect x="112.312" y="32.047" width="10" height="10" rx="5" fill="#81818B" fill-opacity=".2"/><rect x=".313" y="48.047" width="10" height="10" rx="5" fill="#81818B" fill-opacity=".2"/><rect x="16.313" y="48.047" width="10" height="10" rx="5" fill="#81818B" fill-opacity=".2"/><rect x="32.313" y="48.047" width="10" height="10" rx="5" fill="#81818B" fill-opacity=".2"/><rect x="48.313" y="48.047" width="10" height="10" rx="5" fill="#81818B" fill-opacity=".2"/><rect x="64.313" y="48.047" width="10" height="10" rx="5" fill="#81818B" fill-opacity=".2"/><rect x="80.313" y="48.047" width="10" height="10" rx="5" fill="#81818B" fill-opacity=".2"/><rect x="96.313" y="48.047" width="10" height="10" rx="5" fill="#81818B" fill-opacity=".2"/><rect x="112.312" y="48.047" width="10" height="10" rx="5" fill="#81818B" fill-opacity=".2"/><rect x=".313" y="64.047" width="10" height="10" rx="5" fill="#81818B" fill-opacity=".2"/><rect x="16.313" y="64.047" width="10" height="10" rx="5" fill="#81818B" fill-opacity=".2"/><rect x="32.313" y="64.047" width="10" height="10" rx="5" fill="#81818B" fill-opacity=".2"/><rect x="48.313" y="64.047" width="10" height="10" rx="5" fill="#81818B" fill-opacity=".2"/><rect x="64.313" y="64.047" width="10" height="10" rx="5" fill="#81818B" fill-opacity=".2"/><rect x="80.313" y="64.047" width="10" height="10" rx="5" fill="#81818B" fill-opacity=".2"/><rect x="96.313" y="64.047" width="10" height="10" rx="5" fill="#81818B" fill-opacity=".2"/><rect x="112.312" y="64.047" width="10" height="10" rx="5" fill="#81818B" fill-opacity=".2"/><rect x=".313" y="80.047" width="10" height="10" rx="5" fill="#81818B" fill-opacity=".2"/><rect x="16.313" y="80.047" width="10" height="10" rx="5" fill="#81818B" fill-opacity=".2"/><rect x="32.313" y="80.047" width="10" height="10" rx="5" fill="#81818B" fill-opacity=".2"/><rect x="48.313" y="80.047" width="10" height="10" rx="5" fill="#81818B" fill-opacity=".2"/><rect x="64.313" y="80.047" width="10" height="10" rx="5" fill="#81818B" fill-opacity=".2"/><rect x="80.313" y="80.047" width="10" height="10" rx="5" fill="#81818B" fill-opacity=".2"/><rect x="96.313" y="80.047" width="10" height="10" rx="5" fill="#81818B" fill-opacity=".2"/><rect x="112.312" y="80.047" width="10" height="10" rx="5" fill="#81818B" fill-opacity=".2"/><rect x=".313" y="96.047" width="10" height="10" rx="5" fill="#81818B" fill-opacity=".2"/><rect x="16.313" y="96.047" width="10" height="10" rx="5" fill="#81818B" fill-opacity=".2"/><rect x="32.313" y="96.047" width="10" height="10" rx="5" fill="#81818B" fill-opacity=".2"/><rect x="48.313" y="96.047" width="10" height="10" rx="5" fill="#81818B" fill-opacity=".2"/><rect x="64.313" y="96.047" width="10" height="10" rx="5" fill="#81818B" fill-opacity=".2"/><rect x="80.313" y="96.047" width="10" height="10" rx="5" fill="#81818B" fill-opacity=".2"/><rect x="96.313" y="96.047" width="10" height="10" rx="5" fill="#81818B" fill-opacity=".2"/><rect x="112.312" y="96.047" width="10" height="10" rx="5" fill="#81818B" fill-opacity=".2"/><rect x=".313" y="112.047" width="10" height="10" rx="5" fill="#81818B" fill-opacity=".2"/><rect x="16.313" y="112.047" width="10" height="10" rx="5" fill="#81818B" fill-opacity=".2"/><rect x="32.313" y="112.047" width="10" height="10" rx="5" fill="#81818B" fill-opacity=".2"/><rect x="48.313" y="112.047" width="10" height="10" rx="5" fill="#81818B" fill-opacity=".2"/><rect x="64.313" y="112.047" width="10" height="10" rx="5" fill="#81818B" fill-opacity=".2"/><rect x="80.313" y="112.047" width="10" height="10" rx="5" fill="#81818B" fill-opacity=".2"/><rect x="96.313" y="112.047" width="10" height="10" rx="5" fill="#81818B" fill-opacity=".2"/><rect x="112.312" y="112.047" width="10" height="10" rx="5" fill="#81818B" fill-opacity=".2"/></svg>